# xmcd CD database file
#
# Track frame offsets:
#	151
#	21526
#	43136
#	64176
#	82241
#	99884
#	119484
#	145655
#	166611
#	187939
#	208314
#	230391
#	256254
#	276269
#	298094
#
# Disc length: 4295 seconds
#
# Revision: 0
# Processed by: cddbd v1.4PL0 Copyright (c) Steve Scherf et al.
# Submitted via: NeoAudio 9.9.9
#
DISCID=de10c50f
DTITLE=Varios - Las Clasicas De La Salsa
DYEAR=1900
DGENRE=Salsa
TTITLE0=Lluvia De Amor
TTITLE1=Persona Ideal
TTITLE2=Faltaba Una Razón
TTITLE3=Solitario
TTITLE4=Tanto y Tanto
TTITLE5=Mensaje
TTITLE6=Pobre Seductor
TTITLE7=Si Estuvieras Con Migo
TTITLE8=Me Niegas Tanto Amor
TTITLE9=Dime Si Vale La Pena
TTITLE10=Me Estoy Muriendo Por Dentro
TTITLE11=Los Caminos De La Vida
TTITLE12=Hasta Aquí Te Fui Fiel
TTITLE13=Quiere La Que Tienes
TTITLE14=Quiero Volver
EXTD=
EXTT0=
EXTT1=
EXTT2=
EXTT3=
EXTT4=
EXTT5=
EXTT6=
EXTT7=
EXTT8=
EXTT9=
EXTT10=
EXTT11=
EXTT12=
EXTT13=
EXTT14=
PLAYORDER=
